<svg aria-hidden="true" style="position: absolute; width: 0; height: 0; overflow: hidden;" version="1.1"
    xmlns="http://www.w3.org/2000/svg" xmlns:xlink="http://www.w3.org/1999/xlink">
    <defs>
        <symbol id="modal-close" viewBox="0 0 32 32">
            <path
                d="M30.295 28.705c0.111 0.103 0.199 0.227 0.261 0.365s0.094 0.287 0.097 0.438c0.003 0.151-0.025 0.301-0.082 0.441s-0.141 0.267-0.248 0.374-0.234 0.191-0.374 0.248c-0.14 0.057-0.29 0.084-0.441 0.082s-0.3-0.036-0.438-0.097c-0.138-0.062-0.262-0.15-0.365-0.261l-12.705-12.703-12.705 12.703c-0.213 0.199-0.495 0.307-0.787 0.302s-0.57-0.123-0.776-0.329c-0.206-0.206-0.324-0.484-0.329-0.776s0.103-0.573 0.302-0.787l12.703-12.705-12.703-12.705c-0.199-0.213-0.307-0.495-0.302-0.787s0.123-0.57 0.329-0.776c0.206-0.206 0.484-0.324 0.776-0.329s0.574 0.103 0.787 0.302l12.705 12.703 12.705-12.703c0.213-0.199 0.495-0.307 0.787-0.302s0.57 0.123 0.776 0.329c0.206 0.206 0.324 0.484 0.329 0.776s-0.103 0.574-0.302 0.787l-12.703 12.705 12.703 12.705z">
            </path>
        </symbol>
        <symbol id="hamburger-menu" viewBox="0 0 47 32">
            <path fill="#fff" style="fill: var(--color1, #fff)"
                d="M0 31.331v-2.909h46.545v2.909h-46.545zM0 17.454v-2.909h46.545v2.909h-46.545zM0 3.578v-2.909h46.545v2.909h-46.545z">
            </path>
        </symbol>
    </defs>
</svg>